<?xml version="1.0" standalone="no"?>
<!DOCTYPE svg PUBLIC "-//W3C//DTD SVG 20010904//EN"
 "http://www.w3.org/TR/2001/REC-SVG-20010904/DTD/svg10.dtd">
<svg version="1.0" xmlns="http://www.w3.org/2000/svg"
 width="168.000000pt" height="163.000000pt" viewBox="0 0 168.000000 163.000000"
 preserveAspectRatio="xMidYMid meet">

<g transform="translate(0.000000,163.000000) scale(0.100000,-0.100000)"
fill="#000000" stroke="none">
<path d="M840 1500 c-50 -9 -73 -24 -114 -72 -45 -53 -68 -126 -70 -228 -1
-63 -3 -74 -13 -61 -10 14 -12 11 -13 -19 0 -20 7 -45 15 -56 8 -12 12 -24 9
-27 -8 -8 26 -120 42 -138 8 -9 14 -37 14 -64 0 -46 4 -53 51 -101 l51 -52
-36 -12 c-46 -15 -49 -21 -30 -59 15 -29 14 -35 -1 -73 -9 -22 -23 -95 -31
-162 -17 -142 -25 -188 -31 -183 -2 3 -9 33 -17 67 l-12 63 -22 -158 c-13 -87
-20 -160 -17 -163 11 -12 16 10 22 97 3 51 9 88 13 84 15 -17 61 -163 55 -173
-3 -5 1 -10 9 -10 20 0 108 133 124 185 l12 40 -26 -30 -25 -30 6 38 c5 31 2
43 -19 68 -15 17 -26 35 -26 40 0 16 -28 9 -34 -8 -3 -10 -4 10 -2 43 6 91 56
184 56 103 0 -22 5 -32 20 -36 11 -3 17 -9 14 -14 -3 -5 0 -9 7 -9 8 0 10 23
7 83 -5 79 -4 83 23 118 34 44 36 55 9 71 -11 7 -20 16 -20 20 0 3 36 32 80
63 87 60 101 82 98 148 -3 75 1 92 24 102 15 7 28 30 42 74 l21 63 -22 18
c-19 15 -22 27 -22 95 0 67 -4 87 -30 140 -45 91 -111 131 -191 115z m39 -82
c32 -35 40 -63 19 -71 -10 -3 -8 -9 5 -24 27 -31 21 -48 -23 -60 -22 -5 -40
-7 -40 -3 0 12 -119 5 -132 -8 -7 -7 -19 -12 -27 -12 -9 0 -2 9 17 21 29 19
36 30 33 51 0 4 10 10 24 14 28 7 27 6 19 28 -9 24 -27 19 -58 -16 -34 -38
-44 -26 -22 26 12 28 27 41 68 60 70 32 82 32 117 -6z m-29 -279 c0 -45 -2
-49 -24 -49 -13 0 -33 -3 -43 -6 -15 -5 -14 -3 4 13 12 10 27 37 34 60 15 54
29 46 29 -18z m-80 -95 c0 -20 4 -24 19 -19 10 3 29 1 42 -4 13 -5 20 -11 14
-12 -22 -4 -83 -4 -80 1 5 9 -23 29 -30 22 -4 -4 -5 0 -3 8 3 8 10 14 16 13 7
-2 9 4 5 14 -4 11 -3 14 5 9 7 -4 12 -18 12 -32z m54 -86 c-5 -9 -2 -9 9 1 11
9 17 10 17 2 0 -6 7 -11 16 -11 13 0 14 -3 4 -15 -13 -15 -46 -12 -85 8 -19
10 -19 11 5 18 38 11 42 10 34 -3z m-22 -337 c-9 -16 -18 -28 -21 -26 -4 5 27
55 34 55 2 0 -4 -13 -13 -29z"/>
<path d="M1231 1406 c-8 -10 -9 -16 -1 -21 5 -3 10 -5 11 -3 4 18 7 38 4 38
-1 0 -8 -6 -14 -14z"/>
<path d="M1101 1374 c0 -11 3 -14 6 -6 3 7 2 16 -1 19 -3 4 -6 -2 -5 -13z"/>
<path d="M1403 1318 c0 -13 -3 -36 -6 -51 -2 -16 -1 -25 4 -20 12 12 23 93 13
93 -5 0 -10 -10 -11 -22z"/>
<path d="M1229 1313 c-13 -16 -12 -17 4 -4 9 7 17 15 17 17 0 8 -8 3 -21 -13z"/>
<path d="M1187 1293 c-3 -4 1 -14 9 -20 7 -7 15 -9 18 -4 3 5 -1 14 -8 20 -8
7 -16 8 -19 4z"/>
<path d="M1296 1245 c-3 -8 -1 -15 4 -15 6 0 10 7 10 15 0 8 -2 15 -4 15 -2 0
-6 -7 -10 -15z"/>
<path d="M1090 1241 c0 -5 4 -12 10 -16 5 -3 7 -12 3 -20 -3 -8 -1 -15 4 -15
14 0 12 33 -4 48 -7 7 -13 9 -13 3z"/>
<path d="M1376 1207 c3 -10 9 -15 12 -12 3 3 0 11 -7 18 -10 9 -11 8 -5 -6z"/>
<path d="M1191 1147 c-1 -12 -6 -16 -13 -11 -10 5 -10 4 -1 -6 16 -17 26 -8
20 17 -4 17 -5 17 -6 0z"/>
<path d="M1133 1096 c6 -14 3 -17 -9 -12 -14 5 -15 4 -4 -9 7 -8 16 -15 21
-15 13 0 11 38 -3 46 -8 5 -9 2 -5 -10z"/>
<path d="M1206 1088 c-18 -25 -20 -38 -7 -38 5 0 14 14 20 30 12 36 8 38 -13
8z"/>
<path d="M1245 1080 c4 -6 11 -8 16 -5 14 9 11 15 -7 15 -8 0 -12 -5 -9 -10z"/>
<path d="M1333 1083 c9 -2 17 -9 17 -14 0 -6 5 -7 10 -4 16 10 1 25 -23 24
-17 -1 -18 -2 -4 -6z"/>
<path d="M1224 1030 c-4 -16 -11 -30 -16 -30 -5 0 -6 -4 -3 -10 3 -5 15 -10
26 -10 10 0 19 -5 19 -11 0 -7 10 -9 24 -7 15 3 27 0 30 -8 8 -21 26 -17 26 6
0 11 -6 19 -12 18 -7 -2 -12 3 -10 11 3 12 0 12 -12 2 -11 -9 -16 -9 -22 0 -5
8 -3 9 5 4 9 -5 9 -1 -1 14 -7 12 -14 17 -16 11 -6 -16 -22 -12 -22 5 0 8 5
15 11 15 5 0 7 5 4 10 -12 19 -25 10 -31 -20z"/>
<path d="M1650 1044 c0 -9 5 -12 12 -8 8 5 9 2 5 -10 -4 -10 -3 -15 3 -11 15
9 12 32 -5 39 -9 3 -15 0 -15 -10z"/>
<path d="M1195 1030 c-3 -5 -13 -6 -23 -3 -15 6 -15 5 -3 -10 8 -10 14 -16 15
-15 1 2 8 11 15 21 7 9 11 17 8 17 -3 0 -8 -4 -12 -10z"/>
<path d="M1526 1022 c-3 -5 5 -14 18 -20 19 -9 25 -8 30 4 3 9 2 12 -5 9 -5
-4 -16 -2 -24 5 -7 6 -16 7 -19 2z"/>
<path d="M1586 1014 c-9 -22 -8 -24 9 -24 8 0 15 6 15 14 0 22 -17 28 -24 10z"/>
<path d="M1100 1004 c0 -9 6 -14 13 -11 6 2 18 -3 25 -12 10 -13 10 -11 1 12
-13 29 -39 37 -39 11z"/>
<path d="M1402 988 c-6 -13 -11 -17 -11 -10 -1 6 -5 12 -11 12 -5 0 -9 -3 -9
-7 3 -20 -2 -27 -11 -13 -5 8 -12 11 -16 7 -4 -4 -3 -12 3 -18 17 -17 57 -3
70 26 14 31 0 34 -15 3z"/>
<path d="M1077 988 c-3 -8 0 -15 6 -15 7 0 21 -4 32 -8 l20 -7 -20 13 c-11 7
-23 16 -26 21 -3 6 -9 3 -12 -4z"/>
<path d="M1637 983 c-11 -10 -8 -55 3 -48 6 4 10 -5 10 -19 0 -18 -5 -26 -17
-26 -13 0 -14 -3 -5 -12 16 -16 41 17 34 44 -2 10 1 18 7 18 6 0 11 7 11 15 0
18 -26 20 -34 3 -4 -7 -4 -3 -2 10 4 23 3 26 -7 15z"/>
<path d="M1176 964 c-11 -8 -16 -14 -12 -14 5 0 3 -7 -4 -15 -11 -14 -14 -13
-25 1 -6 10 -17 14 -23 10 -5 -3 -12 -1 -14 5 -5 15 -48 -10 -48 -28 0 -16 15
-16 40 -1 15 10 24 10 39 1 14 -9 21 -9 30 0 8 8 15 6 26 -9 17 -22 19 -34 6
-34 -5 0 -11 -7 -14 -15 -5 -11 -1 -12 16 -6 12 5 31 5 42 1 11 -4 30 -6 42
-5 12 1 24 -4 27 -12 3 -7 11 -13 17 -13 8 0 7 5 -2 17 -9 11 -10 14 -2 9 7
-4 20 -3 29 2 12 7 13 11 5 17 -9 5 -9 11 1 23 11 13 11 14 -2 10 -8 -3 -14
-13 -14 -22 1 -9 -2 -16 -7 -16 -5 0 -9 5 -9 10 0 6 -7 10 -15 10 -9 0 -18 7
-21 15 -8 21 -21 19 -29 -5 -8 -24 -15 -25 -41 -4 -10 8 -14 13 -9 11 6 -3 11
11 13 30 1 19 -2 32 -7 29 -5 -4 -11 -2 -13 3 -1 5 -12 3 -22 -5z m-86 -24 c0
-5 -5 -10 -11 -10 -5 0 -7 5 -4 10 3 6 8 10 11 10 2 0 4 -4 4 -10z"/>
<path d="M1605 945 c-7 -17 -42 -55 -50 -55 -2 0 -2 8 -1 18 1 11 -6 17 -19
17 -11 0 -23 4 -26 8 -3 5 -9 1 -13 -8 -5 -14 -2 -16 14 -12 15 4 25 -3 37
-24 10 -17 23 -27 31 -24 8 3 18 5 24 5 6 0 8 7 4 15 -3 8 1 18 8 22 8 5 10
17 6 33 -7 24 -8 24 -15 5z"/>
<path d="M1268 933 c7 -3 16 -2 19 1 4 3 -2 6 -13 5 -11 0 -14 -3 -6 -6z"/>
<path d="M1381 911 c-10 -6 -10 -10 -1 -16 13 -8 24 -1 19 14 -3 6 -10 7 -18
2z"/>
<path d="M1460 897 c0 -19 -15 -23 -25 -7 -10 16 -25 12 -19 -5 4 -8 10 -12
15 -9 5 3 9 1 9 -5 0 -5 -6 -12 -12 -14 -8 -3 -8 -6 -2 -6 6 -1 21 8 34 19 18
16 21 23 12 32 -9 9 -12 8 -12 -5z"/>
<path d="M1065 870 c3 -5 8 -10 11 -10 2 0 4 5 4 10 0 6 -5 10 -11 10 -5 0 -7
-4 -4 -10z"/>
<path d="M1130 863 c0 -6 5 -15 11 -18 7 -5 4 -14 -7 -26 -16 -18 -18 -18 -31
-1 -13 15 -13 15 -4 -5 8 -15 17 -20 33 -17 13 2 17 2 11 -2 -7 -3 -13 -13
-13 -21 0 -12 3 -13 13 -4 8 6 17 8 20 4 4 -3 7 1 7 11 0 9 -7 19 -15 22 -11
5 -12 10 -5 18 7 9 5 19 -5 32 -8 10 -15 14 -15 7z"/>
<path d="M1387 840 c-9 -11 -13 -20 -8 -20 5 0 17 -7 26 -16 12 -13 19 -14 30
-4 8 7 15 18 14 24 0 7 -2 6 -6 -1 -2 -7 -11 -13 -18 -13 -15 0 -28 27 -19 41
9 16 -1 10 -19 -11z"/>
<path d="M1585 851 c-3 -6 -1 -11 4 -11 6 0 11 -6 11 -14 0 -8 6 -16 13 -19 8
-3 12 4 11 22 -1 27 -27 41 -39 22z"/>
<path d="M1670 845 c-2 -11 -3 -25 -3 -32 0 -6 -7 -9 -16 -6 -13 5 -14 3 -3
-8 18 -19 35 2 29 37 -3 21 -5 23 -7 9z"/>
<path d="M1536 825 c-3 -9 -12 -12 -23 -8 -16 6 -16 5 -4 -10 7 -9 17 -14 22
-11 5 3 9 -2 9 -10 0 -10 -6 -13 -15 -10 -8 4 -15 1 -15 -5 0 -6 11 -10 25 -9
29 3 29 3 15 29 -14 25 -3 44 16 28 8 -7 14 -7 14 -1 0 5 -7 13 -16 16 -21 8
-21 8 -28 -9z"/>
<path d="M1570 785 c0 -8 4 -15 10 -15 5 0 7 7 4 15 -4 8 -8 15 -10 15 -2 0
-4 -7 -4 -15z"/>
<path d="M1040 757 c0 -18 -3 -37 -7 -41 -5 -4 -8 -20 -9 -34 0 -15 -4 -34 -7
-42 -4 -9 6 -30 26 -54 l33 -39 63 21 63 21 -6 -27 c-4 -15 -40 -95 -81 -179
-41 -83 -75 -153 -75 -155 0 -1 30 -1 66 0 46 3 64 0 60 -7 -4 -6 -37 -11 -75
-11 l-67 0 -42 -72 c-23 -40 -51 -88 -63 -105 l-21 -33 301 0 c263 0 301 2
301 15 0 9 11 20 25 25 25 9 35 40 14 40 -6 0 -9 -6 -6 -13 3 -7 -3 -13 -13
-13 -15 0 -17 9 -16 56 1 46 4 55 19 54 9 -1 17 3 17 8 0 6 7 5 16 -2 12 -11
15 -11 12 1 -2 8 -7 17 -13 22 -5 4 1 6 15 5 14 -2 24 2 23 8 -1 7 18 22 42
35 25 13 45 27 45 31 0 8 -41 -2 -56 -13 -20 -16 -86 -40 -79 -30 3 6 2 11 -4
11 -5 0 -13 -4 -16 -10 -3 -5 -13 -10 -21 -10 -8 0 -12 5 -9 10 3 6 2 10 -3
10 -5 0 -12 13 -14 30 -3 16 -1 30 4 30 5 0 6 5 3 10 -3 5 4 10 16 10 17 0 19
-3 10 -14 -8 -10 -9 -16 -1 -21 6 -3 7 -11 4 -17 -4 -6 -1 -9 7 -6 8 3 20 -2
26 -11 11 -14 14 -14 23 -1 14 21 12 30 -5 24 -8 -4 -15 -2 -15 4 0 5 7 12 15
16 8 3 15 15 15 26 0 25 44 28 78 4 21 -15 22 -14 22 15 0 32 -11 37 -70 32
-24 -2 -24 -2 -6 17 12 14 27 19 47 17 28 -4 29 -3 29 38 0 24 -5 48 -12 55
-9 9 -9 12 0 12 17 0 17 206 0 214 -10 5 -10 7 0 12 21 10 13 30 -13 32 -14 1
-25 -4 -25 -11 0 -9 -2 -9 -9 1 -6 10 -10 10 -20 -2 -7 -8 -10 -19 -7 -25 9
-14 -4 -41 -21 -41 -8 0 -11 5 -8 10 3 6 1 10 -5 10 -6 0 -13 -7 -16 -15 -4
-8 -10 -12 -15 -9 -6 3 -16 0 -24 -6 -16 -13 -39 -4 -29 12 4 6 10 5 15 -3 7
-11 9 -10 9 4 0 14 -5 17 -20 12 -11 -3 -20 -2 -20 3 0 6 -6 12 -14 15 -10 4
-12 0 -9 -14 3 -10 9 -19 14 -19 5 0 9 -8 8 -17 0 -11 -3 -13 -6 -5 -2 6 -9
10 -14 6 -5 -3 -9 4 -9 15 0 11 -5 23 -11 27 -6 4 -10 -1 -8 -12 1 -11 -1 -27
-6 -37 -7 -17 -8 -17 -20 0 -12 16 -14 16 -29 0 -22 -21 -27 -22 -19 0 4 11 3
14 -5 9 -7 -4 -12 -2 -12 3 0 14 -37 14 -45 1 -9 -15 -25 -12 -25 5 0 13 -4
13 -22 3 -13 -7 -26 -17 -29 -21 -14 -20 -59 12 -134 96 l-25 28 0 -34z m585
-77 c3 -5 -1 -10 -9 -10 -9 0 -16 5 -16 10 0 6 4 10 9 10 6 0 13 -4 16 -10z
m-315 -20 c0 -5 -10 -10 -21 -10 -18 0 -19 -2 -9 -15 11 -13 10 -14 -4 -9 -18
7 -18 7 -10 28 7 17 44 22 44 6z m134 -52 c-5 -7 -1 -7 11 0 12 6 26 7 40 0
24 -11 50 -47 40 -56 -3 -4 -10 -1 -14 6 -7 12 -38 20 -85 21 -12 1 -16 6 -12
16 3 9 0 15 -10 15 -8 0 -12 -4 -9 -10 3 -5 2 -10 -3 -10 -6 0 -9 11 -8 24 1
21 4 22 28 14 16 -6 25 -15 22 -20z m-59 -36 c-6 -7 -34 11 -29 19 3 5 11 3
19 -4 7 -6 12 -13 10 -15z m255 18 c0 -5 -5 -10 -11 -10 -5 0 -7 5 -4 10 3 6
8 10 11 10 2 0 4 -4 4 -10z m-118 -53 c9 -4 7 -11 -9 -25 -16 -14 -19 -22 -10
-31 8 -8 8 -14 -2 -23 -12 -11 -13 -9 -7 7 4 11 3 16 -1 11 -4 -4 -8 -19 -8
-32 -1 -17 5 -24 17 -24 22 0 24 -16 3 -24 -11 -4 -14 -13 -9 -31 4 -15 2 -25
-5 -25 -6 0 -11 5 -11 10 0 6 -8 10 -17 11 -12 0 -13 2 -5 6 10 4 10 8 0 21
-11 13 -10 15 4 10 23 -9 31 3 10 18 -13 9 -17 28 -17 78 -1 63 8 86 18 49 3
-13 5 -12 6 5 1 21 3 22 16 9 8 -9 20 -18 27 -20z m36 -92 c0 -25 -1 -25 -18
-8 -12 12 -14 22 -8 30 14 18 26 8 26 -22z m22 5 c0 -5 -5 -10 -11 -10 -5 0
-7 5 -4 10 3 6 8 10 11 10 2 0 4 -4 4 -10z"/>
<path d="M1490 520 c0 -5 5 -10 11 -10 5 0 7 5 4 10 -3 6 -8 10 -11 10 -2 0
-4 -4 -4 -10z"/>
<path d="M1200 781 c0 -6 4 -13 10 -16 6 -3 7 1 4 9 -7 18 -14 21 -14 7z"/>
<path d="M1485 770 c-3 -5 -1 -10 4 -10 6 0 11 5 11 10 0 6 -2 10 -4 10 -3 0
-8 -4 -11 -10z"/>
<path d="M1506 729 c2 -4 14 -6 26 -4 34 7 35 16 1 13 -18 -1 -30 -5 -27 -9z"/>
<path d="M661 696 c-19 -22 -147 -82 -196 -92 -51 -9 -99 -29 -112 -46 -13
-18 -67 -160 -87 -228 -16 -55 -56 -279 -56 -312 0 -16 14 -18 150 -18 l151 0
-5 48 c-18 171 -23 529 -7 545 6 6 24 1 45 -12 39 -25 44 -23 100 27 32 28 37
38 34 69 -3 33 -4 35 -17 19z"/>
<path d="M1200 699 c0 -5 5 -7 10 -4 6 3 10 8 10 11 0 2 -4 4 -10 4 -5 0 -10
-5 -10 -11z"/>
<path d="M812 320 c0 -14 2 -19 5 -12 2 6 2 18 0 25 -3 6 -5 1 -5 -13z"/>
<path d="M1611 290 c-13 -11 -19 -20 -13 -20 6 0 17 7 25 15 8 8 17 11 21 8 3
-4 6 -1 6 5 0 17 -11 14 -39 -8z"/>
<path d="M1632 187 c-1 -27 1 -29 10 -14 9 18 10 18 24 0 14 -17 14 -17 5 3
-5 11 -16 26 -24 32 -11 10 -14 6 -15 -21z"/>
<path d="M1540 130 c0 -5 7 -10 16 -10 11 0 14 -6 10 -17 -5 -16 -4 -15 9 1 8
10 12 23 9 27 -7 12 -44 11 -44 -1z"/>
<path d="M1625 100 c-3 -5 -1 -10 4 -10 6 0 11 5 11 10 0 6 -2 10 -4 10 -3 0
-8 -4 -11 -10z"/>
<path d="M1580 81 c0 -6 4 -13 10 -16 6 -3 7 1 4 9 -7 18 -14 21 -14 7z"/>
<path d="M1611 23 c-6 -10 -11 -13 -11 -6 0 6 -9 9 -20 6 -32 -9 -23 -23 14
-23 29 0 34 4 33 20 -2 24 -3 25 -16 3z"/>
</g>
</svg>
